<svg xmlns="http://www.w3.org/2000/svg" xmlns:xlink="http://www.w3.org/1999/xlink" width="500" zoomAndPan="magnify" viewBox="0 0 375 374.999991" height="500" preserveAspectRatio="xMidYMid meet" version="1.0"><path fill="#ffffff" d="M 293.339844 61.511719 C 287.089844 67.289062 280.746094 73.144531 273.675781 79.683594 C 271.28125 78.152344 268.460938 76.457031 265.75 74.597656 C 184.667969 18.949219 72.308594 60.523438 48.707031 156.007812 C 28.996094 235.757812 80.277344 306.199219 148.292969 323.75 C 218.949219 341.976562 287.550781 308.257812 315.703125 241.953125 C 327.203125 214.871094 329.015625 186.726562 322.410156 158.292969 C 320.160156 148.605469 320.425781 140.683594 327.109375 133.011719 C 330.769531 128.804688 333.472656 123.769531 337.382812 117.949219 C 339.40625 120.839844 341.203125 122.613281 342.074219 124.761719 C 361.457031 172.507812 360.753906 220.140625 336.464844 265.492188 C 302.230469 329.40625 247.035156 361.1875 174.941406 357.125 C 67.347656 351.066406 0.015625 252.261719 18.746094 156.765625 C 33.8125 79.949219 106.0625 13.863281 200.488281 21.425781 C 231.316406 23.898438 259.578125 34.605469 284.808594 52.792969 C 286.960938 54.34375 289.066406 55.980469 291.039062 57.746094 C 291.828125 58.449219 292.210938 59.609375 293.339844 61.511719 Z M 293.339844 61.511719 " fill-opacity="1" fill-rule="nonzero"/><path fill="#ffffff" d="M 182.589844 211.746094 C 191.304688 202.101562 198.746094 193.585938 206.484375 185.34375 C 250.328125 138.601562 294.152344 91.847656 338.210938 45.3125 C 344.960938 38.1875 352.695312 31.949219 360.320312 25.714844 C 363.328125 23.253906 367.273438 21.933594 370.789062 20.09375 C 374.992188 25.886719 372.183594 29.945312 369.925781 33.667969 C 361.476562 47.605469 353.1875 61.667969 344.078125 75.167969 C 300.589844 139.589844 256.972656 203.921875 213.050781 268.042969 C 207.332031 276.390625 200.039062 283.847656 192.613281 290.792969 C 185.335938 297.601562 181.558594 297.289062 173.46875 291.566406 C 170.070312 289.167969 166.6875 286.597656 163.867188 283.578125 C 135.640625 253.398438 107.292969 223.328125 79.507812 192.746094 C 68.03125 180.113281 69.875 172.464844 84.617188 164 C 87.242188 162.496094 90.078125 161.363281 92.761719 159.949219 C 107.601562 152.125 120.457031 153.207031 132.730469 166.058594 C 145.011719 178.921875 158.765625 190.378906 171.90625 202.414062 C 174.910156 205.171875 178.042969 207.785156 182.589844 211.746094 Z M 182.589844 211.746094 " fill-opacity="1" fill-rule="nonzero"/></svg>