<svg xmlns="http://www.w3.org/2000/svg" xmlns:xlink="http://www.w3.org/1999/xlink" width="500" zoomAndPan="magnify" viewBox="0 0 375 374.999991" height="500" preserveAspectRatio="xMidYMid meet" version="1.0"><defs><clipPath id="9e37dae185"><path d="M 0 7.96875 L 94 7.96875 L 94 211 L 0 211 Z M 0 7.96875 " clip-rule="nonzero"/></clipPath><clipPath id="8e19505759"><path d="M 109 23 L 375 23 L 375 367.21875 L 109 367.21875 Z M 109 23 " clip-rule="nonzero"/></clipPath></defs><g clip-path="url(#9e37dae185)"><path fill="#ffffff" d="M 86.027344 7.96875 L 7.96875 7.96875 C 3.660156 7.96875 0.164062 11.464844 0.164062 15.773438 L 0.164062 203.113281 C 0.164062 207.421875 3.660156 210.917969 7.96875 210.917969 L 86.027344 210.917969 C 90.335938 210.917969 93.832031 207.421875 93.832031 203.113281 L 93.832031 15.773438 C 93.832031 11.464844 90.335938 7.96875 86.027344 7.96875 Z M 86.027344 7.96875 " fill-opacity="1" fill-rule="nonzero"/></g><g clip-path="url(#8e19505759)"><path fill="#ffffff" d="M 374.835938 152.375 C 374.835938 138.839844 367.09375 126.957031 355.558594 121.152344 C 357.960938 116.359375 359.226562 111.050781 359.226562 105.539062 C 359.226562 92.003906 351.480469 80.125 339.945312 74.316406 C 342.347656 69.523438 343.613281 64.214844 343.613281 58.707031 C 343.613281 39.332031 327.847656 23.582031 308.488281 23.582031 L 164.082031 23.582031 C 149.640625 23.582031 123.429688 29.792969 111.722656 41.472656 C 110.269531 42.9375 109.441406 44.921875 109.441406 46.996094 L 109.441406 187.5 C 109.441406 190.449219 111.113281 193.152344 113.75 194.476562 L 126.910156 201.050781 L 171.886719 298.496094 L 171.886719 351.417969 C 171.886719 353.792969 172.964844 356.023438 174.808594 357.523438 C 175.308594 357.914062 186.90625 367.03125 203.113281 367.03125 C 221.171875 367.03125 249.945312 338.445312 249.945312 304.585938 C 249.945312 283.230469 242.296875 256.644531 237.519531 242.140625 L 335.808594 242.140625 C 357.335938 242.140625 374.835938 224.625 374.835938 203.113281 C 374.835938 193.261719 371.167969 184.019531 364.707031 176.960938 C 371.121094 170.5 374.835938 161.742188 374.835938 152.375 Z M 374.835938 152.375 " fill-opacity="1" fill-rule="nonzero"/></g></svg>