<svg xmlns="http://www.w3.org/2000/svg" xmlns:xlink="http://www.w3.org/1999/xlink" width="500" zoomAndPan="magnify" viewBox="0 0 375 374.999991" height="500" preserveAspectRatio="xMidYMid meet" version="1.0"><path fill="#ffffff" d="M 189.683594 0 C 112.214844 0 68.285156 43.402344 67.035156 106.230469 L 67.035156 109.375 L 135.425781 109.375 L 135.425781 106.230469 C 136.925781 78.480469 156.121094 60.578125 185.136719 60.578125 C 213.902344 60.578125 233.082031 77.207031 233.082031 100.675781 C 233.082031 124.144531 223.238281 136.261719 190.691406 155.699219 C 155.863281 176.136719 141.96875 198.851562 145.25 239.226562 L 145.648438 250 L 212.632812 250 L 212.632812 239.746094 C 212.632812 215.527344 221.980469 203.136719 255.542969 183.714844 C 291.121094 162.761719 309.527344 136.277344 309.527344 98.417969 C 309.527344 40.121094 261.855469 0 189.683594 0 Z M 180.589844 296.875 C 154.917969 296.875 138.902344 311.777344 138.902344 336.058594 C 138.902344 360.121094 154.933594 375 180.589844 375 C 206.246094 375 222.0625 360.121094 222.0625 336.058594 C 222.0625 311.777344 206.261719 296.875 180.589844 296.875 Z M 180.589844 296.875 " fill-opacity="1" fill-rule="nonzero"/></svg>