<svg xmlns="http://www.w3.org/2000/svg" xmlns:xlink="http://www.w3.org/1999/xlink" width="500" zoomAndPan="magnify" viewBox="0 0 375 374.999991" height="500" preserveAspectRatio="xMidYMid meet" version="1.0"><defs><clipPath id="d2e2f746b1"><path d="M 0.535156 0 L 372 0 L 372 371.25 L 0.535156 371.25 Z M 0.535156 0 " clip-rule="nonzero"/></clipPath></defs><path fill="#ffffff" d="M 106.226562 224.179688 C 97.335938 224.179688 90.0625 216.90625 90.0625 208.015625 L 90.0625 154.679688 C 90.0625 145.789062 97.335938 138.515625 106.226562 138.515625 C 115.113281 138.515625 122.386719 145.789062 122.386719 154.679688 L 122.386719 208.015625 C 122.386719 216.90625 115.195312 224.179688 106.226562 224.179688 Z M 106.226562 224.179688 " fill-opacity="1" fill-rule="nonzero"/><path fill="#ffffff" d="M 148.25 224.179688 C 139.359375 224.179688 132.085938 216.90625 132.085938 208.015625 L 132.085938 131.644531 C 132.085938 122.757812 139.359375 115.484375 148.25 115.484375 C 157.136719 115.484375 164.410156 122.757812 164.410156 131.644531 L 164.410156 208.015625 C 164.410156 216.90625 157.21875 224.179688 148.25 224.179688 Z M 148.25 224.179688 " fill-opacity="1" fill-rule="nonzero"/><path fill="#ffffff" d="M 191.082031 224.179688 C 182.191406 224.179688 174.917969 216.90625 174.917969 208.015625 L 174.917969 98.917969 C 174.917969 90.027344 182.191406 82.753906 191.082031 82.753906 C 199.96875 82.753906 207.242188 90.027344 207.242188 98.917969 L 207.242188 208.015625 C 207.242188 216.90625 200.050781 224.179688 191.082031 224.179688 Z M 191.082031 224.179688 " fill-opacity="1" fill-rule="nonzero"/><g clip-path="url(#d2e2f746b1)"><path fill="#ffffff" d="M 362.730469 318.164062 L 311.734375 267.253906 C 301.554688 257.070312 285.957031 255.453125 274.078125 262.402344 L 265.832031 248.179688 C 316.261719 189.105469 313.515625 99.96875 257.671875 44.125 C 229.222656 15.679688 191.402344 0 151.238281 0 C 110.992188 0 73.253906 15.679688 44.804688 44.125 C 16.359375 72.570312 0.683594 110.390625 0.683594 150.558594 C 0.683594 190.800781 16.359375 228.542969 44.804688 256.988281 C 74.140625 286.324219 112.691406 301.03125 151.238281 301.03125 C 180.574219 301.03125 209.910156 292.546875 235.203125 275.496094 C 243.285156 270.082031 253.871094 270.242188 261.792969 275.820312 C 256.296875 287.375 258.316406 301.597656 267.855469 311.132812 L 318.847656 362.128906 C 324.910156 368.191406 332.828125 371.179688 340.828125 371.179688 C 348.75 371.179688 356.75 368.191406 362.808594 362.128906 C 374.851562 350.007812 374.851562 330.289062 362.730469 318.164062 Z M 67.597656 234.199219 C 45.292969 211.894531 33.007812 182.15625 33.007812 150.636719 C 33.007812 119.039062 45.292969 89.378906 67.597656 67.074219 C 89.902344 44.769531 119.640625 32.488281 151.15625 32.488281 C 182.757812 32.488281 212.414062 44.769531 234.71875 67.074219 C 280.785156 113.140625 280.785156 188.214844 234.71875 234.28125 C 188.65625 280.265625 113.660156 280.265625 67.597656 234.199219 Z M 67.597656 234.199219 " fill-opacity="1" fill-rule="nonzero"/></g></svg>