<svg xmlns="http://www.w3.org/2000/svg" xmlns:xlink="http://www.w3.org/1999/xlink" width="500" zoomAndPan="magnify" viewBox="0 0 375 374.999991" height="500" preserveAspectRatio="xMidYMid meet" version="1.0"><path fill="#ffffff" d="M 260.394531 196.574219 C 247.707031 196.574219 237.425781 186.289062 237.425781 173.605469 C 237.425781 160.921875 247.707031 150.636719 260.394531 150.636719 C 273.078125 150.636719 283.363281 160.921875 283.363281 173.605469 C 283.363281 186.289062 273.078125 196.574219 260.394531 196.574219 Z M 183.835938 196.574219 C 171.148438 196.574219 160.867188 186.289062 160.867188 173.605469 C 160.867188 160.921875 171.148438 150.636719 183.835938 150.636719 C 196.523438 150.636719 206.804688 160.921875 206.804688 173.605469 C 206.804688 186.289062 196.523438 196.574219 183.835938 196.574219 Z M 107.277344 196.574219 C 94.589844 196.574219 84.308594 186.289062 84.308594 173.605469 C 84.308594 160.921875 94.589844 150.636719 107.277344 150.636719 C 119.960938 150.636719 130.246094 160.921875 130.246094 173.605469 C 130.246094 186.289062 119.960938 196.574219 107.277344 196.574219 Z M 189.851562 28.085938 C 86.882812 26.058594 2.125 89.511719 0.542969 169.808594 C -0.0078125 197.722656 9.578125 224 26.628906 246.488281 L 26.625 246.488281 C 55.953125 284.167969 23.941406 348.941406 23.941406 348.941406 L 118.449219 308.238281 C 138.8125 314.671875 160.9375 318.421875 184.125 318.878906 C 287.089844 320.90625 371.847656 257.457031 373.429688 177.15625 C 375.015625 96.855469 292.824219 30.117188 189.851562 28.085938 " fill-opacity="1" fill-rule="evenodd"/></svg>