<svg xmlns="http://www.w3.org/2000/svg" xmlns:xlink="http://www.w3.org/1999/xlink" width="500" zoomAndPan="magnify" viewBox="0 0 375 374.999991" height="500" preserveAspectRatio="xMidYMid meet" version="1.0"><defs><clipPath id="731f0bc297"><path d="M 68 0 L 345.386719 0 L 345.386719 374.25 L 68 374.25 Z M 68 0 " clip-rule="nonzero"/></clipPath><clipPath id="7141c4641b"><path d="M 29.636719 144 L 308 144 L 308 287 L 29.636719 287 Z M 29.636719 144 " clip-rule="nonzero"/></clipPath><clipPath id="e19a8f654c"><path d="M 253 1 L 345.386719 1 L 345.386719 160 L 253 160 Z M 253 1 " clip-rule="nonzero"/></clipPath><clipPath id="eeead384a8"><path d="M 252 0 L 345.386719 0 L 345.386719 94 L 252 94 Z M 252 0 " clip-rule="nonzero"/></clipPath><clipPath id="ab03754e22"><path d="M 41.292969 165.980469 L 51.867188 165.980469 L 51.867188 183.21875 L 41.292969 183.21875 Z M 41.292969 165.980469 " clip-rule="nonzero"/></clipPath><clipPath id="1f05768d23"><path d="M 55.421875 165.980469 L 65.996094 165.980469 L 65.996094 183.21875 L 55.421875 183.21875 Z M 55.421875 165.980469 " clip-rule="nonzero"/></clipPath><clipPath id="d73516053d"><path d="M 291.773438 166.320312 L 302.347656 166.320312 L 302.347656 183.554688 L 291.773438 183.554688 Z M 291.773438 166.320312 " clip-rule="nonzero"/></clipPath><clipPath id="c786048ab5"><path d="M 277.644531 166.320312 L 288.214844 166.320312 L 288.214844 183.554688 L 277.644531 183.554688 Z M 277.644531 166.320312 " clip-rule="nonzero"/></clipPath></defs><g clip-path="url(#731f0bc297)"><path fill="#f2f2f2" d="M 345.371094 93.148438 L 345.371094 355.574219 C 345.371094 365.925781 336.972656 374.25 326.625 374.25 L 87.617188 374.25 C 77.269531 374.25 68.871094 365.851562 68.871094 355.574219 L 68.871094 18.675781 C 68.871094 8.324219 77.269531 0 87.617188 0 L 252.304688 0 L 266.105469 13.800781 Z M 345.371094 93.148438 " fill-opacity="1" fill-rule="nonzero"/></g><path fill="#cccccc" d="M 307.050781 174.675781 L 307.050781 286.875 C 307.050781 295.125 300.375 301.800781 292.050781 301.800781 L 68.871094 301.800781 L 68.871094 159.675781 L 292.050781 159.675781 C 300.375 159.675781 307.050781 166.425781 307.050781 174.675781 Z M 307.050781 174.675781 " fill-opacity="1" fill-rule="nonzero"/><g clip-path="url(#7141c4641b)"><path fill="#ff0000" d="M 292.125 286.875 L 44.648438 286.875 C 36.398438 286.875 29.648438 280.125 29.648438 271.875 L 29.648438 159.75 C 29.648438 151.5 36.398438 144.75 44.648438 144.75 L 292.125 144.75 C 300.375 144.75 307.125 151.5 307.125 159.75 L 307.125 271.875 C 307.125 280.125 300.375 286.875 292.125 286.875 Z M 292.125 286.875 " fill-opacity="1" fill-rule="nonzero"/></g><g clip-path="url(#e19a8f654c)"><path fill="#e6e6e6" d="M 345.371094 159.226562 L 253.804688 67.875 L 253.804688 1.875 L 345.371094 93.148438 Z M 345.371094 159.226562 " fill-opacity="1" fill-rule="nonzero"/></g><g clip-path="url(#eeead384a8)"><path fill="#b3b3b3" d="M 345.371094 93.148438 L 271.054688 93.148438 C 260.703125 93.148438 252.304688 84.75 252.304688 74.476562 L 252.304688 0 L 266.105469 13.800781 Z M 345.371094 93.148438 " fill-opacity="1" fill-rule="nonzero"/></g><path fill="#ffffff" d="M 130.140625 199.425781 C 130.140625 213.675781 120.617188 221.101562 110.117188 222.375 C 106.214844 222.824219 103.292969 222.898438 98.792969 222.898438 L 90.394531 222.898438 L 90.394531 248.25 L 71.417969 248.25 L 71.417969 176.023438 L 98.71875 176.023438 C 103.21875 176.023438 106.140625 176.101562 110.042969 176.550781 C 120.539062 177.75 130.140625 185.175781 130.140625 199.425781 Z M 110.417969 199.425781 C 110.417969 193.949219 107.566406 191.175781 102.765625 190.726562 C 101.417969 190.648438 99.691406 190.648438 97.742188 190.648438 L 90.394531 190.648438 L 90.394531 208.273438 L 97.742188 208.273438 C 99.765625 208.273438 101.417969 208.273438 102.765625 208.199219 C 107.566406 207.675781 110.417969 204.824219 110.417969 199.425781 Z M 110.417969 199.425781 " fill-opacity="1" fill-rule="nonzero"/><path fill="#ffffff" d="M 206.332031 211.125 C 206.332031 233.773438 192.460938 245.851562 175.660156 247.800781 C 171.984375 248.25 170.335938 248.25 166.4375 248.25 L 139.0625 248.25 L 139.0625 176.023438 L 166.4375 176.023438 C 170.335938 176.023438 171.984375 176.023438 175.660156 176.476562 C 192.460938 178.273438 206.332031 188.550781 206.332031 211.125 Z M 186.609375 211.425781 C 186.609375 198.523438 180.085938 191.625 170.636719 190.800781 C 168.238281 190.574219 166.511719 190.574219 163.8125 190.574219 L 157.960938 190.574219 L 157.960938 233.476562 L 163.8125 233.476562 C 166.511719 233.476562 168.238281 233.476562 170.636719 233.25 C 180.085938 232.5 186.609375 224.324219 186.609375 211.425781 Z M 186.609375 211.425781 " fill-opacity="1" fill-rule="nonzero"/><path fill="#ffffff" d="M 236.554688 204.675781 L 269.027344 204.675781 L 269.027344 219.300781 L 236.554688 219.300781 L 236.554688 248.175781 L 217.65625 248.175781 L 217.65625 175.949219 L 272.179688 175.949219 L 272.179688 190.574219 L 236.554688 190.574219 Z M 236.554688 204.675781 " fill-opacity="1" fill-rule="nonzero"/><g clip-path="url(#ab03754e22)"><path fill="#ffffff" d="M 46.617188 173.085938 C 45.996094 173.085938 45.40625 173.199219 44.851562 173.398438 C 44.902344 172.835938 45.003906 172.273438 45.160156 171.714844 C 45.484375 170.566406 46.070312 169.460938 46.855469 168.472656 C 47.644531 167.484375 48.652344 166.625 49.824219 165.980469 C 48.523438 166.269531 47.242188 166.832031 46.085938 167.636719 C 44.9375 168.445312 43.898438 169.492188 43.109375 170.746094 C 42.316406 171.996094 41.746094 173.433594 41.476562 174.964844 C 41.265625 176.183594 41.230469 177.449219 41.402344 178.71875 C 41.425781 179.050781 41.484375 179.371094 41.570312 179.683594 C 41.570312 179.691406 41.570312 179.695312 41.570312 179.699219 L 41.574219 179.699219 C 42.179688 181.917969 44.207031 183.554688 46.617188 183.554688 C 49.503906 183.554688 51.851562 181.207031 51.851562 178.320312 C 51.851562 175.433594 49.503906 173.085938 46.617188 173.085938 " fill-opacity="1" fill-rule="nonzero"/></g><g clip-path="url(#1f05768d23)"><path fill="#ffffff" d="M 60.761719 173.085938 C 60.144531 173.085938 59.550781 173.199219 59 173.398438 C 59.046875 172.835938 59.148438 172.273438 59.308594 171.714844 C 59.628906 170.566406 60.214844 169.460938 61.003906 168.472656 C 61.792969 167.484375 62.800781 166.625 63.972656 165.980469 C 62.667969 166.269531 61.386719 166.832031 60.234375 167.636719 C 59.082031 168.445312 58.042969 169.492188 57.253906 170.746094 C 56.460938 171.996094 55.890625 173.433594 55.621094 174.964844 C 55.410156 176.183594 55.378906 177.449219 55.546875 178.71875 C 55.574219 179.050781 55.628906 179.371094 55.714844 179.683594 C 55.714844 179.6875 55.714844 179.695312 55.71875 179.699219 C 56.328125 181.917969 58.355469 183.554688 60.761719 183.554688 C 63.648438 183.554688 65.996094 181.207031 65.996094 178.320312 C 65.996094 175.433594 63.648438 173.085938 60.761719 173.085938 " fill-opacity="1" fill-rule="nonzero"/></g><g clip-path="url(#d73516053d)"><path fill="#ffffff" d="M 297.023438 176.453125 C 297.644531 176.453125 298.234375 176.339844 298.789062 176.140625 C 298.738281 176.699219 298.636719 177.265625 298.476562 177.824219 C 298.15625 178.972656 297.570312 180.078125 296.78125 181.066406 C 295.992188 182.050781 294.984375 182.910156 293.8125 183.554688 C 295.117188 183.265625 296.398438 182.707031 297.550781 181.898438 C 298.703125 181.09375 299.742188 180.042969 300.53125 178.792969 C 301.324219 177.542969 301.894531 176.105469 302.164062 174.574219 C 302.375 173.355469 302.40625 172.085938 302.238281 170.820312 C 302.210938 170.488281 302.15625 170.164062 302.070312 169.851562 C 302.070312 169.847656 302.070312 169.84375 302.066406 169.839844 C 301.460938 167.621094 299.429688 165.984375 297.023438 165.984375 C 294.136719 165.984375 291.789062 168.332031 291.789062 171.21875 C 291.789062 174.105469 294.136719 176.453125 297.023438 176.453125 " fill-opacity="1" fill-rule="nonzero"/></g><g clip-path="url(#c786048ab5)"><path fill="#ffffff" d="M 282.878906 176.453125 C 283.496094 176.453125 284.089844 176.339844 284.640625 176.140625 C 284.59375 176.699219 284.492188 177.265625 284.332031 177.824219 C 284.007812 178.972656 283.421875 180.078125 282.636719 181.066406 C 281.847656 182.050781 280.839844 182.910156 279.667969 183.554688 C 280.972656 183.265625 282.253906 182.707031 283.40625 181.898438 C 284.558594 181.09375 285.59375 180.042969 286.386719 178.792969 C 287.179688 177.542969 287.746094 176.105469 288.015625 174.574219 C 288.230469 173.355469 288.261719 172.085938 288.089844 170.820312 C 288.066406 170.488281 288.007812 170.164062 287.925781 169.855469 C 287.925781 169.847656 287.921875 169.84375 287.921875 169.839844 C 287.3125 167.621094 285.285156 165.984375 282.878906 165.984375 C 279.992188 165.984375 277.644531 168.332031 277.644531 171.21875 C 277.644531 174.105469 279.992188 176.453125 282.878906 176.453125 " fill-opacity="1" fill-rule="nonzero"/></g></svg>