<svg xmlns="http://www.w3.org/2000/svg" xmlns:xlink="http://www.w3.org/1999/xlink" width="500" zoomAndPan="magnify" viewBox="0 0 375 374.999991" height="500" preserveAspectRatio="xMidYMid meet" version="1.0"><path fill="#231a2a" d="M 245.691406 135.777344 C 242.121094 135.777344 239.222656 132.878906 239.222656 129.308594 C 239.222656 129.308594 239.222656 19.550781 239.222656 19.550781 C 239.222656 8.839844 230.539062 0.15625 219.828125 0.15625 L 155.171875 0.15625 C 144.457031 0.15625 135.777344 8.839844 135.777344 19.550781 L 135.777344 129.308594 C 135.777344 132.878906 132.878906 135.777344 129.308594 135.777344 C 129.308594 135.777344 19.550781 135.777344 19.550781 135.777344 C 8.839844 135.777344 0.15625 144.460938 0.15625 155.171875 L 0.15625 219.828125 C 0.15625 230.539062 8.839844 239.222656 19.550781 239.222656 L 129.308594 239.222656 C 132.878906 239.222656 135.777344 242.121094 135.777344 245.691406 C 135.777344 245.691406 135.777344 355.449219 135.777344 355.449219 C 135.777344 366.160156 144.457031 374.84375 155.171875 374.84375 L 219.828125 374.84375 C 230.539062 374.84375 239.222656 366.160156 239.222656 355.449219 L 239.222656 245.691406 C 239.222656 242.121094 242.121094 239.222656 245.691406 239.222656 C 245.691406 239.222656 355.449219 239.222656 355.449219 239.222656 C 366.160156 239.222656 374.84375 230.539062 374.84375 219.828125 L 374.84375 155.171875 C 374.84375 144.460938 366.160156 135.777344 355.449219 135.777344 Z M 245.691406 135.777344 " fill-opacity="1" fill-rule="evenodd"/></svg>